<?xml version="1.0" encoding="utf-8"?>
<!-- Generator: Adobe Illustrator 24.3.0, SVG Export Plug-In . SVG Version: 6.00 Build 0)  -->
<svg version="1.1" id="Layer_2" xmlns="http://www.w3.org/2000/svg" xmlns:xlink="http://www.w3.org/1999/xlink" x="0px" y="0px"
	 viewBox="0 0 256 256" style="enable-background:new 0 0 256 256;" xml:space="preserve">
<style type="text/css">
	.st0{fill:#323853;}
</style>
<path class="st0" d="M122.5,178.6H61.9L84.8,70.1h60.7l-4,18.9h-38l-5,23.8h35.4l-4.1,18.9H94.5l-5.9,28h38L122.5,178.6z
	 M237.5,150.2c6.1-11.8,9.1-25.6,9.1-41.2c0-12.8-3.5-22.8-10.4-29.9c-6.9-7.1-16.7-10.7-29.3-10.7c-11.3,0-21.2,2.9-29.8,8.8
	c-8.6,5.9-15.4,14.3-20.3,25.3c-5,11.4-7.5,23.7-7.3,36.2c0,13,3.5,23.1,10.6,30.4c7.1,7.3,17,10.9,29.7,10.9h1.9l13.2,24.4h26.6
	l-18.8-29.2C223.2,170.4,231.5,162.1,237.5,150.2z M219.3,136.1c-2.8,7.9-6.6,14-11.5,18.3c-4.5,4.1-10.3,6.4-16.4,6.5
	c-6,0-10.6-1.9-13.9-5.6c-3.3-3.7-4.9-9.2-4.9-16.5c-0.1-8.8,1.4-17.5,4.3-25.8c2.8-7.9,6.8-14.1,11.8-18.7c5-4.5,10.5-6.8,16.5-6.8
	c5.8,0,10.4,1.9,13.6,5.8c3.2,3.8,4.8,9.3,4.8,16.3C223.6,118.6,222.2,127.5,219.3,136.1z M120.4,238.6c-7.5,0-15-0.8-22.4-2.3
	c-14.2-2.9-27.7-8.6-39.7-16.7c-17.9-12.1-31.8-29-40.2-48.9c-2.8-6.7-5-13.7-6.5-20.8c-3-14.8-3-30,0-44.8
	c2.9-14.2,8.6-27.7,16.7-39.7c12.1-17.9,29-31.8,48.9-40.2c6.7-2.8,13.7-5,20.8-6.5c14.8-3,30-3,44.8,0c14.2,2.9,27.7,8.6,39.7,16.7
	c2.6,1.8,5.2,3.7,7.7,5.7c-4,0.8-7.9,2-11.7,3.4c-0.5-0.3-0.9-0.6-1.4-1C130.7,12.3,67.7,24.5,36.4,70.9S17.2,180.3,63.6,211.6
	c34.3,23.2,79.2,23.2,113.5,0c0.5-0.3,0.9-0.6,1.4-1c3.8,1.4,7.8,2.5,11.7,3.4c-2.5,2-5.1,3.9-7.7,5.7
	C164.2,232.1,142.6,238.7,120.4,238.6L120.4,238.6z"/>
</svg>
