<svg width="240" height="240" viewBox="0 0 240 240" fill="none" xmlns="http://www.w3.org/2000/svg">
<path fill-rule="evenodd" clip-rule="evenodd" d="M48 32C39.1634 32 32 39.1634 32 48V192C32 200.837 39.1634 208 48 208H192C200.837 208 208 200.837 208 192V48C208 39.1634 200.837 32 192 32H48ZM104.288 182.878C107.348 182.878 110.335 182.579 113.231 182.009L69.5885 105.935C62.373 114.099 57.9918 124.826 57.9918 136.576C57.9918 148.325 62.373 159.058 69.5885 167.222C76.1885 174.697 85.1655 180.021 95.3393 182.009C98.2357 182.579 101.228 182.878 104.288 182.878ZM127.415 182.009C130.303 182.579 133.282 182.878 136.333 182.878C139.384 182.878 142.368 182.579 145.256 182.009C155.401 180.021 164.352 174.697 170.932 167.222C178.128 159.058 182.497 148.325 182.497 136.575C182.497 124.826 178.128 114.099 170.932 105.935L127.415 182.009ZM145.429 127.063L165.449 92.2158C165.44 92.1796 165.433 92.1433 165.425 92.1063C165.418 92.074 165.412 92.041 165.404 92.0069C160.689 71.4386 142.273 56.0986 120.276 56.0986C98.229 56.0986 79.7839 71.5064 75.1204 92.1424C75.1204 92.148 75.1148 92.1593 75.1148 92.165L95.1351 127.294L105.845 146.394L120.152 171.914L134.499 146.462L145.429 127.063Z" fill="black"/>
</svg>
