<svg width="240" height="240" viewBox="0 0 240 240" fill="none" xmlns="http://www.w3.org/2000/svg">
<path fill-rule="evenodd" clip-rule="evenodd" d="M48 32C39.1634 32 32 39.1634 32 48V192C32 200.836 39.1634 208 48 208H192C200.836 208 208 200.836 208 192V176.241C187.741 171.884 167.362 168.218 152.669 167.268C116.138 164.906 109.142 167.847 107.955 168.631C115.336 162.553 121.335 154.977 125.552 146.405C128.638 137.604 129.438 128.166 127.876 118.973C127.876 118.973 160.804 140.223 197.992 160.7C201.263 162.501 204.612 164.248 208 165.937V73.775C182.712 83.5296 154.971 96.5412 129.038 113.564C59.206 159.404 55.5674 164.391 55.4332 164.896L52.3859 114.368C52.6722 117.848 54.6117 131.485 67.4452 132.496C82.1656 133.655 168.939 61.7924 168.939 61.7924L208 57.6479V48C208 39.1634 200.836 32 192 32H48ZM52.3374 113.564L52.3859 114.368C52.3438 113.856 52.3374 113.564 52.3374 113.564ZM55.4364 164.95C55.4364 164.95 55.4214 164.94 55.4332 164.896L55.4364 164.95ZM107.955 168.631C107.782 168.745 107.733 168.813 107.733 168.813C107.807 168.753 107.881 168.692 107.955 168.631ZM101.147 106.996C106.57 98.11 107.345 88.8374 103.084 86.1329C98.8229 83.8148 90.6879 88.8374 85.2646 97.7236C79.8413 106.61 79.0666 115.882 83.3277 118.587C87.9763 121.291 95.7239 115.882 101.147 106.996Z" fill="black"/>
</svg>
