<svg fill="#000000" xmlns="http://www.w3.org/2000/svg" viewBox="0 0 30 30" width="240px" height="240px"><path d="M12.586 13.822c0-.675-.487-1.081-1.333-1.081h-1.48v2.155h1.333C12.064 14.897 12.586 14.503 12.586 13.822zM11.312 16.095H9.773v2.408h1.58c1.022 0 1.574-.429 1.574-1.221C12.927 16.506 12.357 16.095 11.312 16.095zM18.97 14.55c-.793 0-1.351.552-1.409 1.392h2.76C20.285 15.085 19.768 14.55 18.97 14.55z"/><path d="M24,4H6C4.895,4,4,4.895,4,6v18c0,1.105,0.895,2,2,2h18c1.105,0,2-0.895,2-2V6C26,4.895,25.105,4,24,4z M17.5,11h2.557c0.276,0,0.5,0.224,0.5,0.5c0,0.276-0.224,0.5-0.5,0.5H17.5c-0.276,0-0.5-0.224-0.5-0.5C17,11.224,17.224,11,17.5,11z M11.805,19.859H8.919C8.411,19.859,8,19.448,8,18.94v-6.636c0-0.508,0.411-0.919,0.919-0.919h2.786c1.644,0,2.625,0.805,2.625,2.114c0,0.898-0.664,1.68-1.533,1.809v0.106c1.122,0.082,1.938,0.928,1.938,2.02C14.736,18.919,13.614,19.859,11.805,19.859z M22,17.034h-4.445v0.088c0.023,0.963,0.587,1.562,1.48,1.562c0.675,0,1.139-0.241,1.321-0.669h1.591C21.689,19.237,20.573,20,18.987,20c-1.973,0-3.136-1.245-3.136-3.347c0-2.108,1.186-3.412,3.112-3.412c1.909,0,3.036,1.216,3.036,3.271V17.034z"/></svg>