<svg xmlns="http://www.w3.org/2000/svg" width="82.045" height="58.427" viewBox="0 0 82.045 58.427">
  <g id="YouTube_Logo_2017" transform="translate(-1.816 -0.4)">
    <path id="Path_20" data-name="Path 20" d="M82.051,9.549A10.4,10.4,0,0,0,74.79,2.166C68.423.4,42.8.4,42.8.4S17.173.454,10.806,2.219A10.4,10.4,0,0,0,3.544,9.6C1.619,21.106.871,38.634,3.6,49.678a10.4,10.4,0,0,0,7.261,7.384c6.367,1.766,31.992,1.766,31.992,1.766s25.625,0,31.992-1.766A10.4,10.4,0,0,0,82.1,49.678C84.135,38.158,84.761,20.641,82.051,9.549Z" transform="translate(0 0)" fill="red"/>
    <path id="Path_21" data-name="Path 21" d="M64.2,56.984,86.113,44.292,64.2,31.6Z" transform="translate(-29.912 -14.679)" fill="#fff"/>
  </g>
</svg>
