<svg xmlns="http://www.w3.org/2000/svg" width="82.049" height="58.427" viewBox="0 0 82.049 58.427">
  <path id="Subtraction_5" data-name="Subtraction 5" d="M41.034,58.427c-.256,0-25.7-.02-31.991-1.766a10.292,10.292,0,0,1-4.6-2.707A10.543,10.543,0,0,1,1.78,49.278,82.543,82.543,0,0,1,.01,29.413,138.552,138.552,0,0,1,1.728,9.2,10.545,10.545,0,0,1,4.391,4.527a10.291,10.291,0,0,1,4.6-2.708C15.282.074,40.725,0,40.981,0s25.7.02,31.991,1.766a10.291,10.291,0,0,1,4.6,2.707,10.549,10.549,0,0,1,2.663,4.676c2.718,11.127,2.083,28.609.052,40.128a10.545,10.545,0,0,1-2.663,4.676,10.291,10.291,0,0,1-4.6,2.708C66.732,58.407,41.29,58.427,41.034,58.427ZM32.471,16.521V41.906L54.384,29.213Z" fill="#fff"/>
</svg>
